PathFileType	4	(X/Y/Z)	c:/Users/goper/Files/vsCode/490R/osim_files/C04/C04_SSWS_03.trc
DataRate	CameraRate	NumFrames	NumMarkers	Units                	OrigDataRate	OrigDataStartFrame	OrigNumFrames
250.00	250.00	8	36	mm	250.0	1800	2879
                Frame#	Time	LPSIS			LASIS			LTH1			LTH2			LTH3			LTH4			LLFE			LMFE			LSH1			LSH2			LSH3			LSH4			LLMAL			LMMAL			LCAL			LMTP5			LTOE			LMTP1			RPSIS			RASIS			RTH1			RTH2			RTH3			RTH4			RLFE			RMFE			RSH1			RSH2			RSH3			RSH4			RLMAL			RMMAL			RCAL			RMTP1			RTOE			RMTP5		
		X1	Y1	Z1	X2	Y2	Z2	X3	Y3	Z3	X4	Y4	Z4	X5	Y5	Z5	X6	Y6	Z6	X7	Y7	Z7	X8	Y8	Z8	X9	Y9	Z9	X10	Y10	Z10	X11	Y11	Z11	X12	Y12	Z12	X13	Y13	Z13	X14	Y14	Z14	X15	Y15	Z15	X16	Y16	Z16	X17	Y17	Z17	X18	Y18	Z18	X19	Y19	Z19	X20	Y20	Z20	X21	Y21	Z21	X22	Y22	Z22	X23	Y23	Z23	X24	Y24	Z24	X25	Y25	Z25	X26	Y26	Z26	X27	Y27	Z27	X28	Y28	Z28	X29	Y29	Z29	X30	Y30	Z30	X31	Y31	Z31	X32	Y32	Z32	X33	Y33	Z33	X34	Y34	Z34	X35	Y35	Z35	X36	Y36	Z36

1800	7.19600	39.00714	976.99475	239.30951	-125.08315	965.96667	314.29797	-81.87282	710.55914	379.09976	-112.95397	657.99524	367.69308	-137.16754	749.02313	384.49930	-177.96150	698.85846	368.80524	-232.12834	498.74530	341.97205	-251.24809	481.90546	229.27776	-155.08444	422.29669	341.05881	-131.18968	380.61459	336.62799	-200.79492	401.39804	354.80704	-184.36404	357.81360	353.26230	-75.42422	137.92624	327.10507	-103.27492	153.99805	240.33479	-15.50454	130.18051	264.51993	-185.03168	51.19479	358.79242	-224.69128	71.78777	313.03790	-199.33253	52.74942	254.35318	37.04208	981.47626	164.46629	-131.65523	960.39813	102.78965	-33.41296	729.57092	28.21346	-35.03045	669.28650	44.16681	0.00000	0.00000	0.00000	-110.09514	680.15271	52.33322	-79.56423	458.29025	97.18484	-62.45085	461.60648	211.09544	1.68755	332.46240	83.09494	4.37529	287.36856	90.34772	0.00000	0.00000	0.00000	0.00000	0.00000	0.00000	22.43996	83.64860	129.13438	24.09184	96.65192	219.77319	90.94722	57.84702	168.60435	-96.39572	30.79744	235.01711	-134.15881	47.40841	194.94156	-108.55779	20.89989	128.99634
1801	7.20000	35.28305	976.83539	239.72534	-128.88286	966.04132	314.38303	-86.71391	711.14069	379.42239	-118.02036	658.15582	367.89297	-141.66634	749.33704	384.75644	-182.46584	699.78546	369.86218	-237.45786	499.18988	341.91245	-256.57849	482.63715	229.18112	-161.75609	420.89407	341.19705	-138.81898	378.72400	336.80334	-208.07486	400.99258	354.84760	-192.51936	357.07089	353.30490	-88.62417	134.73767	327.31277	-114.13505	152.51843	241.26001	-28.00260	125.06849	263.91684	-200.31998	51.03145	359.09006	-239.51759	72.35065	313.16534	-214.74149	52.51863	254.72749	33.53381	981.24597	164.94804	-137.38918	960.85138	99.26093	-35.93631	729.55573	28.58418	-37.24737	669.31805	44.51225	0.00000	0.00000	0.00000	0.00000	0.00000	0.00000	-80.74553	458.18524	97.19476	-63.46135	461.64468	211.29974	0.76959	332.54852	83.28228	3.41813	287.38455	90.42585	0.00000	0.00000	0.00000	0.00000	0.00000	0.00000	22.35865	83.68868	129.26456	24.02042	96.66636	219.88509	90.90453	57.93362	168.64514	-97.36057	31.44886	234.90038	-134.33067	47.56091	194.62837	-108.57489	20.85999	128.99777
1802	7.20400	31.65917	976.66138	240.09181	-132.60463	965.95221	314.35077	-91.41027	711.21106	379.69241	-122.76886	658.34149	368.06046	-146.20331	749.62567	385.01608	-186.90831	700.62415	370.93228	-242.70171	499.55255	341.80188	-261.94559	483.24231	229.02097	-168.49792	419.42139	341.34418	-146.48119	376.71356	337.02377	-215.07364	400.70837	354.95163	-200.69299	356.38013	353.41058	-101.68617	131.72375	327.51138	-128.89073	148.80482	240.52284	-42.10060	120.81042	265.18173	-215.87819	50.81889	359.14246	-254.15154	73.20184	313.20679	-230.15190	52.75661	253.11653	30.01646	981.00427	165.36685	-140.67896	960.49066	99.21008	-38.48206	729.53546	28.89657	-39.53128	669.37128	44.82203	0.00000	0.00000	0.00000	0.00000	0.00000	0.00000	-82.30907	457.88934	97.35780	-65.45936	461.30270	211.37259	-0.15384	332.65179	83.38264	2.68568	287.47858	90.58188	-61.00385	324.44699	94.39639	-49.60229	278.71417	98.43390	22.29148	83.79192	129.34929	23.92888	96.63975	219.97383	90.86117	58.06122	168.65427	-97.55746	31.64386	234.90849	-134.93329	46.65147	193.35780	-108.56706	20.81679	128.93536
1803	7.20800	27.93187	976.45691	240.53856	-136.30273	965.87469	314.36050	-95.92771	711.22540	379.98590	-127.26784	658.54016	368.27713	-150.53278	749.84998	385.27005	-191.30336	701.33582	371.94095	-247.88936	499.90405	341.79593	-267.05322	483.79269	228.93353	-175.23637	417.94705	341.65002	-154.17352	374.75208	337.31494	-222.38704	400.22717	354.96631	-208.94398	355.64761	353.46219	-115.12326	128.80794	327.81259	-141.60405	146.42500	240.76344	-55.93183	116.02007	265.47308	-231.10918	50.90832	359.23492	-268.87100	74.07458	313.18765	-244.84401	52.77146	254.78555	26.36357	980.77228	165.77419	-144.18990	960.11060	99.11567	-41.05465	729.56982	29.19857	-41.80214	669.41748	45.11473	0.00000	0.00000	0.00000	0.00000	0.00000	0.00000	-83.68463	457.60413	97.42139	-67.08679	461.17413	211.45636	-1.10157	332.72488	83.53593	1.98754	287.63913	90.72433	-61.90614	324.18442	94.55289	-50.54118	278.30173	98.66626	22.18675	83.86475	129.45775	23.82681	96.66154	220.09958	90.80180	58.21084	168.67583	-97.65109	31.59947	234.86981	-134.95326	46.59475	193.36169	-108.59698	20.78066	128.90848
1804	7.21200	24.19856	976.20551	240.92584	-140.17436	965.67535	314.41730	-100.39082	711.21442	380.17459	-132.10793	658.52435	368.34326	-155.02415	749.94641	385.52417	-195.66536	701.88135	372.81360	-253.12720	500.05869	341.69019	-272.20944	484.30783	228.77679	-181.98843	416.37961	341.91629	-161.93680	372.67426	337.68292	-229.43140	399.83026	355.09424	-217.09747	354.89081	353.56046	-128.38434	125.98361	328.11945	-153.94812	144.19092	241.02861	-69.40999	111.63611	266.13458	-246.47217	51.09524	359.27072	-283.38620	75.05439	312.87387	-259.75415	52.99093	255.02522	22.80622	980.58282	166.13718	-147.76265	959.69263	99.15639	-43.57726	729.58801	29.49669	-44.12085	669.40094	45.41159	0.00000	0.00000	0.00000	0.00000	0.00000	0.00000	-85.09173	457.40115	97.59834	-68.70814	461.06622	211.59946	-2.20503	332.77258	83.63129	1.15711	287.79675	90.91105	-62.96668	323.87851	94.61263	-51.33600	278.16684	98.82989	22.04210	83.95587	129.56932	23.74881	96.68994	220.22722	90.71014	58.36893	168.70508	-97.67633	31.61202	234.85484	-135.00101	46.55246	193.35378	-108.61507	20.68709	128.89136
1805	7.21600	20.48668	975.94830	241.40651	-144.02087	965.60754	314.44702	-104.72458	711.15106	380.39594	-136.43539	658.64844	368.55930	-159.28395	750.04175	385.75937	-200.00873	702.22205	373.47571	-258.28632	500.29889	341.58783	-277.19922	484.70819	228.64716	-188.64194	414.81210	342.32040	-169.60568	370.62976	338.06454	-236.69496	399.32068	355.14746	-225.25739	354.09631	353.64716	-141.81075	123.23041	328.52231	-166.55951	141.89554	241.13434	-81.37047	108.07344	267.83228	-261.80832	51.33691	359.26498	-297.88718	76.04658	312.72171	-274.63779	53.43631	254.95361	19.26420	980.33832	166.59526	-151.10698	959.29736	99.17316	-46.23944	729.56012	29.82801	-46.47216	669.38306	45.67812	0.00000	0.00000	0.00000	0.00000	0.00000	0.00000	-86.73782	457.03760	97.72308	-70.57260	460.76151	211.59888	-3.10721	332.89612	83.78542	0.14536	287.84018	91.00385	-63.86883	324.17191	94.90976	-51.93884	278.41785	98.98656	21.87176	84.13522	129.69496	23.61096	96.70497	220.37350	90.61708	58.54113	168.74141	-97.18493	31.73632	235.00629	-135.03709	46.54895	193.33765	-108.62034	20.66633	128.85681
1806	7.22000	16.75660	975.69843	241.86443	-147.86984	965.41248	314.48651	-109.07725	710.99274	380.50940	-141.06241	658.48987	368.61569	-163.60365	749.96344	385.96875	-204.34782	702.31885	373.85254	-263.25897	500.40979	341.47394	-282.19653	485.06247	228.57074	-195.30109	413.18527	342.66959	-177.22881	368.64523	338.50345	-243.64272	398.92825	355.28259	-233.34573	353.37576	353.79315	-155.20810	120.53870	328.96967	-178.82858	139.87900	241.56505	-96.16003	103.29247	267.51965	-277.22137	51.56548	359.05594	-312.36801	77.23414	312.55777	-289.18701	54.10455	254.79597	15.63747	980.06494	167.05759	-154.73041	958.89893	99.23680	-48.92179	729.55908	30.10103	-48.92719	669.34265	45.95994	0.00000	0.00000	0.00000	0.00000	0.00000	0.00000	-88.15443	456.87924	97.74397	-72.26528	460.53751	211.73183	-4.30860	332.88885	83.92463	-0.59200	287.99738	91.17123	-64.96280	323.55994	95.15136	-53.10927	277.82816	99.35368	21.64249	84.32814	129.78343	23.51915	96.72142	220.52168	90.52567	58.68816	168.79439	-97.83147	31.65376	234.79633	-135.06413	46.51227	193.32883	-108.60647	20.65902	128.81375
1807	7.22400	13.09147	975.48169	242.25357	-151.74234	965.08905	314.51132	-113.30824	710.82941	380.66046	-145.14230	658.52301	368.85922	-167.72142	749.87396	386.23569	-208.69434	702.18396	373.96582	-268.20166	500.39624	341.36511	-287.02271	485.46378	228.38715	-201.87535	411.54428	343.12305	-184.86594	366.55652	339.02655	-250.69963	398.30646	355.35367	-241.40334	352.51941	353.97531	-168.49800	118.03439	329.44562	-191.41711	137.71330	241.85277	-110.05383	99.17851	268.04443	-292.38715	52.09637	358.81790	-326.70386	78.72446	312.18533	-303.81290	54.80891	254.60921	12.07241	979.79266	167.49458	-158.17619	958.45874	99.34255	-51.51993	729.50183	30.39225	-51.39100	669.26123	46.22251	0.00000	0.00000	0.00000	0.00000	0.00000	0.00000	-89.74754	456.59161	97.88996	-73.94196	460.28284	211.91408	-5.36627	332.93686	84.06004	-2.04847	288.12970	91.26673	-66.09859	324.13937	95.30083	-53.88274	277.74512	99.48400	21.41985	84.46915	129.87848	23.40988	96.71570	220.68898	90.46063	58.81822	168.83153	-97.83633	31.62518	234.80502	-135.12343	46.45963	193.33047	-108.63294	20.63824	128.82278
